<?xml version="1.0" encoding="UTF-8"?>
<svg xmlns="http://www.w3.org/2000/svg" version="1.1" viewBox="0 0 8192 6186.7">
  <defs>
    <style>
      .cls-1 {
        fill: #fff;
      }

      .cls-1, .cls-2, .cls-3, .cls-4, .cls-5, .cls-6 {
        stroke-linecap: round;
        stroke-miterlimit: 3.2;
      }

      .cls-1, .cls-3 {
        stroke-width: 326.1px;
      }

      .cls-1, .cls-3, .cls-5, .cls-6 {
        stroke: #1d1d1b;
      }

      .cls-7 {
        fill: #f0ede8;
      }

      .cls-2 {
        stroke: #854c1f;
      }

      .cls-2, .cls-3, .cls-5, .cls-6 {
        fill: #f2ede7;
      }

      .cls-2, .cls-5 {
        stroke-width: 4.4px;
      }

      .cls-8 {
        display: none;
      }

      .cls-4 {
        fill: #f3eee8;
        stroke: #864b1f;
        stroke-width: 3.8px;
      }

      .cls-6 {
        stroke-width: 3.2px;
      }
    </style>
  </defs>
  <!-- Generator: Adobe Illustrator 28.7.7, SVG Export Plug-In . SVG Version: 1.2.0 Build 194)  -->
  <g>
    <g id="Livello_1">
      <g id="Livello_5" class="cls-8">
        <g id="Livello_4">
          <rect class="cls-7" x="2320.4" y="1717.2" width="1690.5" height="1195.3"/>
        </g>
      </g>
      <g id="Livello_5-2" data-name="Livello_5" class="cls-8">
        <g id="Livello_4-2" data-name="Livello_4">
          <rect class="cls-7" x="2320.4" y="1717.2" width="1690.5" height="1195.3"/>
        </g>
      </g>
      <g id="Livello_1-2-2" class="cls-8">
        <g>
          <circle class="cls-4" cx="3165.6" cy="2314.8" r="45"/>
          <polyline class="cls-4" points="3164.4 2293.1 3164.4 2319.4 3183.6 2331"/>
        </g>
      </g>
      <g id="Livello_1-2-2-2" data-name="Livello_1-2-2" class="cls-8">
        <g>
          <circle class="cls-4" cx="3165.6" cy="2314.8" r="45"/>
          <polyline class="cls-4" points="3164.4 2293.1 3164.4 2319.4 3183.6 2331"/>
        </g>
      </g>
      <g id="Livello_2" class="cls-8">
        <path class="cls-2" d="M3163.2,2270c3.2,2.2,11.8,8.4,16.1,20.5,5.8,16.9-1.6,31.3-3,33.7,2.2-1.4,8.6-6,11.6-14.6,2.4-6.4,1.9-11.8,1.4-14.6,14.5,18.5,12.5,43.1-1.4,55.6-11.2,10-30.9,13.3-43.9,3-13.7-10.8-14.5-32.3-7.4-43.9,6.8-11,19.8-11.4,24.9-24.9,2.2-5.8,2-11.2,1.4-14.6h.4l-.2-.2h0Z"/>
      </g>
      <g id="Livello_2-2" data-name="Livello_2" class="cls-8">
        <path class="cls-2" d="M3163.2,2270c3.2,2.2,11.8,8.4,16.1,20.5,5.8,16.9-1.6,31.3-3,33.7,2.2-1.4,8.6-6,11.6-14.6,2.4-6.4,1.9-11.8,1.4-14.6,14.5,18.5,12.5,43.1-1.4,55.6-11.2,10-30.9,13.3-43.9,3-13.7-10.8-14.5-32.3-7.4-43.9,6.8-11,19.8-11.4,24.9-24.9,2.2-5.8,2-11.2,1.4-14.6h.4l-.2-.2h0Z"/>
      </g>
      <g id="Livello_3" class="cls-8">
        <rect class="cls-5" x="2847.9" y="1836.1" width="56.2" height="56.2"/>
        <rect class="cls-5" x="2454.2" y="2005.2" width="159.4" height="159.4"/>
      </g>
      <g id="Livello_3-2" data-name="Livello_3" class="cls-8">
        <rect class="cls-5" x="2847.9" y="1836.1" width="56.2" height="56.2"/>
        <rect class="cls-5" x="2454.2" y="2005.2" width="159.4" height="159.4"/>
      </g>
      <g id="_x32_8px" class="cls-8">
        <g>
          <path class="cls-6" d="M3196.1,2327.4h-60.8c.2-16.5,13.8-29.9,30.5-29.9s30.1,13.3,30.5,29.9h-.3,0Z"/>
          <ellipse class="cls-6" cx="3165.6" cy="2289.9" rx="4.8" ry="3.2"/>
          <path class="cls-6" d="M3203.7,2327.4c-.4,1.9-1.4,4.7-3.4,7.4-2.2,3-4.8,5-7.2,6.2-2.2,1.2-4,1.6-5,1.9h-44.3c-1.4-.4-3.6-1.4-6-3-1.9-1.2-3.8-3-5.6-5.2-2.2-2.8-3.4-5.4-4.2-7.4h75.9l-.3.2h0Z"/>
        </g>
      </g>
      <g id="_x32_8px-2" data-name="_x32_8px" class="cls-8">
        <g>
          <path class="cls-6" d="M3196.1,2327.4h-60.8c.2-16.5,13.8-29.9,30.5-29.9s30.1,13.3,30.5,29.9h-.3,0Z"/>
          <ellipse class="cls-6" cx="3165.6" cy="2289.9" rx="4.8" ry="3.2"/>
          <path class="cls-6" d="M3203.7,2327.4c-.4,1.9-1.4,4.7-3.4,7.4-2.2,3-4.8,5-7.2,6.2-2.2,1.2-4,1.6-5,1.9h-44.3c-1.4-.4-3.6-1.4-6-3-1.9-1.2-3.8-3-5.6-5.2-2.2-2.8-3.4-5.4-4.2-7.4h75.9l-.3.2h0Z"/>
        </g>
      </g>
      <g id="_x32_8cm">
        <g>
          <path class="cls-3" d="M7175.3,4360H1008.8c18.1-1020.4,531.2-1919.8,1311.6-2466.9,90.6-63.5,184.7-122.2,282.1-175.9,441-242.9,948.6-381.1,1489.5-381.1,1689.9,0,3053.7,1349.1,3083.3,3023.9Z"/>
          <ellipse class="cls-3" cx="4092.3" cy="565.1" rx="489.2" ry="326.1"/>
          <path class="cls-1" d="M7946.3,4360c-44.3,192.8-133.3,474.3-341,756-222.2,311.3-489.2,504-741.1,622.5-222.2,118.6-400.2,163.1-504,192.8H1868.7c-148.2-44.3-370.4-133.3-607.8-296.4-192.8-118.6-385.3-296.4-578.1-518.9-222.2-281.7-355.8-548.4-429.9-756h7693.3Z"/>
        </g>
      </g>
      <path class="cls-3" d="M7175.3,4360H1008.8c18.1-1020.4,531.2-1919.8,1311.6-2466.9,90.6-63.5,184.7-122.2,282.1-175.9,441-242.9,948.6-381.1,1489.5-381.1,1689.9,0,3053.7,1349.1,3083.3,3023.9Z"/>
      <ellipse class="cls-3" cx="4092.3" cy="565.1" rx="489.2" ry="326.1"/>
      <path class="cls-3" d="M7946.3,4360c-44.3,192.8-133.3,474.3-341,756-222.2,311.3-489.2,504-741.1,622.5-222.2,118.6-400.2,163.1-504,192.8H1868.7c-148.2-44.3-370.4-133.3-607.8-296.4-192.8-118.6-385.3-296.4-578.1-518.9-222.2-281.7-355.8-548.4-429.9-756h7693.3Z"/>
      <g id="Livello_6" class="cls-8">
        <g>
          <path class="cls-5" d="M3207.3,2332.1h-83.5c.4-22.6,18.9-41,41.8-41s41.4,18.2,41.8,41h0Z"/>
          <ellipse class="cls-5" cx="3165.6" cy="2280.7" rx="6.6" ry="4.4"/>
          <path class="cls-5" d="M3217.8,2332.1c-.7,2.7-1.9,6.4-4.7,10.2-3,4.2-6.6,6.8-10,8.4-3,1.6-5.4,2.2-6.8,2.7h-60.8c-2-.7-5-1.9-8.2-4-2.7-1.6-5.2-4-7.8-7-3-3.8-4.8-7.4-5.8-10.2h104.2l-.2-.2h0Z"/>
        </g>
      </g>
      <g id="Livello_6-2" data-name="Livello_6" class="cls-8">
        <g>
          <path class="cls-5" d="M3207.3,2332.1h-83.5c.4-22.6,18.9-41,41.8-41s41.4,18.2,41.8,41h0Z"/>
          <ellipse class="cls-5" cx="3165.6" cy="2280.7" rx="6.6" ry="4.4"/>
          <path class="cls-5" d="M3217.8,2332.1c-.7,2.7-1.9,6.4-4.7,10.2-3,4.2-6.6,6.8-10,8.4-3,1.6-5.4,2.2-6.8,2.7h-60.8c-2-.7-5-1.9-8.2-4-2.7-1.6-5.2-4-7.8-7-3-3.8-4.8-7.4-5.8-10.2h104.2l-.2-.2h0Z"/>
        </g>
      </g>
    </g>
  </g>
</svg>