<?xml version="1.0" encoding="UTF-8"?>
<svg xmlns="http://www.w3.org/2000/svg" version="1.1" viewBox="0 0 16317.7 12323.4">
  <defs>
    <style>
      .cls-1, .cls-2, .cls-3, .cls-4 {
        fill: #f2ede7;
      }

      .cls-1, .cls-2, .cls-3, .cls-4, .cls-5, .cls-6 {
        stroke-miterlimit: 6.4;
      }

      .cls-1, .cls-2, .cls-3, .cls-4, .cls-5, .cls-6, .cls-7 {
        stroke-linecap: round;
      }

      .cls-1, .cls-2, .cls-3, .cls-5 {
        stroke: #1d1d1b;
      }

      .cls-1, .cls-5 {
        stroke-width: 649.6px;
      }

      .cls-2, .cls-4 {
        stroke-width: 8.8px;
      }

      .cls-3 {
        stroke-width: 6.4px;
      }

      .cls-8 {
        fill: #f0ede8;
      }

      .cls-4 {
        stroke: #854c1f;
      }

      .cls-9 {
        display: none;
      }

      .cls-5 {
        fill: #fff;
      }

      .cls-6 {
        fill: #f3eee8;
        stroke: #864b1f;
        stroke-width: 7.5px;
      }

      .cls-7 {
        fill: #f2eee8;
        stroke: #000;
        stroke-miterlimit: 10;
        stroke-width: 554.6px;
      }
    </style>
  </defs>
  <!-- Generator: Adobe Illustrator 28.7.7, SVG Export Plug-In . SVG Version: 1.2.0 Build 194)  -->
  <g>
    <g id="Livello_1">
      <g class="cls-9">
        <g id="Livello_1-2" data-name="Livello_1">
          <g id="Livello_1-2">
            <g>
              <g id="Livello_5" class="cls-9">
                <g id="Livello_4">
                  <rect class="cls-8" x="4622.1" y="3420.5" width="3367.4" height="2381"/>
                </g>
              </g>
              <g id="Livello_1-2-2" data-name="Livello_1-2" class="cls-9">
                <g>
                  <circle class="cls-6" cx="6305.5" cy="4610.9" r="89.6"/>
                  <polyline class="cls-6" points="6303.1 4567.7 6303.1 4620 6341.5 4643.2"/>
                </g>
              </g>
              <g id="Livello_2" class="cls-9">
                <path class="cls-4" d="M6300.7,4521.6c6.4,4.3,23.5,16.8,32,40.8,11.5,33.6-3.2,62.4-5.9,67.2,4.3-2.7,17.1-12,23.2-29.1,4.8-12.8,3.7-23.5,2.7-29.1,28.8,36.8,24.8,85.9-2.7,110.7-22.4,20-61.6,26.4-87.5,5.9-27.2-21.6-28.8-64.3-14.7-87.5,13.6-21.9,39.5-22.7,49.6-49.6,4.3-11.5,4-22.4,2.7-29.1h.8l-.3-.3h0Z"/>
              </g>
              <g id="Livello_3" class="cls-9">
                <rect class="cls-2" x="5672.7" y="3657.3" width="112" height="112"/>
                <rect class="cls-2" x="4888.5" y="3994.1" width="317.6" height="317.6"/>
              </g>
              <g id="_x32_8px" class="cls-9">
                <g>
                  <path class="cls-3" d="M6366.3,4636h-121.1c.3-32.8,27.5-59.5,60.8-59.5s60,26.4,60.8,59.5h-.5Z"/>
                  <ellipse class="cls-3" cx="6305.5" cy="4561.3" rx="9.6" ry="6.4"/>
                  <path class="cls-3" d="M6381.5,4636c-.8,3.7-2.7,9.3-6.7,14.7-4.3,5.9-9.6,9.9-14.4,12.3-4.3,2.4-8,3.2-9.9,3.7h-88.3c-2.7-.8-7.2-2.7-12-5.9-3.7-2.4-7.5-5.9-11.2-10.4-4.3-5.6-6.7-10.7-8.3-14.7h151.2l-.5.3Z"/>
                </g>
              </g>
              <g id="_x32_8cm">
                <g>
                  <path class="cls-1" d="M14292.5,8684.7H2009.5c36-2032.6,1058.1-3824.1,2612.5-4913.8,180.4-126.5,367.9-243.5,561.9-350.4,878.5-483.9,1889.5-759.2,2967-759.2,3366.1,0,6082.6,2687.2,6141.6,6023.4Z"/>
                  <ellipse class="cls-1" cx="8151.4" cy="1125.6" rx="974.4" ry="649.6"/>
                  <path class="cls-5" d="M15828.2,8684.7c-88.3,384-265.6,944.8-679.2,1505.9-442.7,620-974.4,1004-1476.3,1240-442.7,236.3-797.1,324.8-1004,384H3722.3c-295.2-88.3-737.9-265.6-1210.7-590.4-384-236.3-767.5-590.4-1151.5-1033.6-442.7-561.1-708.8-1092.3-856.3-1505.9h15324.3Z"/>
                </g>
              </g>
              <g id="Livello_6" class="cls-9">
                <g>
                  <path class="cls-2" d="M6388.7,4645.3h-166.4c.8-45.1,37.6-81.6,83.2-81.6s82.4,36.3,83.2,81.6h0Z"/>
                  <ellipse class="cls-2" cx="6305.5" cy="4542.9" rx="13.1" ry="8.8"/>
                  <path class="cls-2" d="M6409.5,4645.3c-1.3,5.3-3.7,12.8-9.3,20.3-5.9,8.3-13.1,13.6-20,16.8-5.9,3.2-10.7,4.3-13.6,5.3h-121.1c-4-1.3-9.9-3.7-16.3-8-5.3-3.2-10.4-8-15.5-13.9-5.9-7.5-9.6-14.7-11.5-20.3h207.5l-.3-.3h0Z"/>
                </g>
              </g>
            </g>
          </g>
        </g>
      </g>
      <path class="cls-7" d="M7812.4,618.9c401,266.8,1500.2,1074.9,2033.5,2588.1,746.7,2118.6-205.3,3948-369.7,4251.9,288.4-189.2,1079.8-762.9,1478.9-1848.6,293.1-797.5,237.5-1498.2,184.9-1848.6,1826.2,2328.4,1581,5433.7-184.9,7024.8-1412.2,1272.4-3901.9,1670.9-5545.9,369.7-1730.5-1369.6-1835-4077.2-924.3-5545.9,864.3-1393.9,2494.4-1432,3142.7-3142.7,278.8-735.8,242.1-1427.4,184.9-1848.6Z"/>
    </g>
  </g>
</svg>